<svg xmlns="http://www.w3.org/2000/svg" width="65" height="65" viewBox="0 0 65 65">
  <g id="country-music" transform="translate(0.233)">
    <circle id="Ellipse_3" data-name="Ellipse 3" cx="32.5" cy="32.5" r="32.5" transform="translate(-0.233)" fill="#f0f0f0"/>
    <path id="Path_9" data-name="Path 9" d="M189.548,178.253c0,2.824-5.057,9.884-11.3,9.884s-11.3-7.06-11.3-9.884a11.3,11.3,0,1,1,22.591,0Z" transform="translate(-145.814 -145.777)" fill="#d80027"/>
    <path id="Path_10" data-name="Path 10" d="M189.548,256a11.3,11.3,0,1,1-22.591,0" transform="translate(-145.814 -223.525)" fill="#0052b4"/>
    <rect id="Rectangle_11" data-name="Rectangle 11" width="4.236" height="2.824" transform="translate(44.419 42.459) rotate(-45)"/>
    <rect id="Rectangle_12" data-name="Rectangle 12" width="4.236" height="2.824" transform="translate(39.426 47.452) rotate(-45)"/>
    <rect id="Rectangle_13" data-name="Rectangle 13" width="4.236" height="2.824" transform="translate(50.41 48.449) rotate(-45)"/>
    <rect id="Rectangle_14" data-name="Rectangle 14" width="4.236" height="2.824" transform="translate(45.417 53.442) rotate(-45)"/>
    <rect id="Rectangle_15" data-name="Rectangle 15" width="4.236" height="2.824" transform="translate(47.414 45.454) rotate(-45)"/>
    <rect id="Rectangle_16" data-name="Rectangle 16" width="4.236" height="2.824" transform="translate(42.423 50.447) rotate(-45)"/>
    <rect id="Rectangle_17" data-name="Rectangle 17" width="11.296" height="2.824" transform="translate(50.411 22.49) rotate(-135)"/>
    <rect id="Rectangle_18" data-name="Rectangle 18" width="4.236" height="2.824" transform="translate(42.423 20.495) rotate(-135)"/>
    <rect id="Rectangle_19" data-name="Rectangle 19" width="4.236" height="2.824" transform="translate(47.415 25.486) rotate(-135)"/>
    <rect id="Rectangle_20" data-name="Rectangle 20" width="4.236" height="2.824" transform="translate(48.411 14.504) rotate(-135)"/>
    <rect id="Rectangle_21" data-name="Rectangle 21" width="4.236" height="2.824" transform="translate(53.405 19.496) rotate(-135)"/>
    <rect id="Rectangle_22" data-name="Rectangle 22" width="11.296" height="2.824" transform="translate(11.472 45.455) rotate(45)"/>
    <rect id="Rectangle_23" data-name="Rectangle 23" width="4.236" height="2.824" transform="translate(19.458 47.451) rotate(45)"/>
    <rect id="Rectangle_24" data-name="Rectangle 24" width="4.236" height="2.824" transform="translate(14.467 42.459) rotate(45)"/>
    <rect id="Rectangle_25" data-name="Rectangle 25" width="11.296" height="2.824" transform="translate(17.462 39.464) rotate(45)"/>
    <rect id="Rectangle_26" data-name="Rectangle 26" width="11.296" height="2.824" transform="translate(19.459 11.508) rotate(135)"/>
    <rect id="Rectangle_27" data-name="Rectangle 27" width="11.296" height="2.824" transform="translate(22.453 14.503) rotate(135)"/>
    <rect id="Rectangle_28" data-name="Rectangle 28" width="11.296" height="2.824" transform="translate(25.45 17.499) rotate(135)"/>
  </g>
</svg>
