<svg xmlns="http://www.w3.org/2000/svg" width="59.363" height="43.024" viewBox="0 0 59.363 43.024">
  <g id="button" transform="translate(0.001 -0.5)">
    <path id="Path_34" data-name="Path 34" d="M306.677,149.249h2.139a.869.869,0,0,0,0-1.737h-2.139a.869.869,0,0,0,0,1.737Zm0,0" transform="translate(-270.353 -129.967)" fill="#ed1c24"/>
    <path id="Path_35" data-name="Path 35" d="M353.268,149.249a.869.869,0,1,0,0-1.737H347.4a.869.869,0,1,0,0,1.737Zm0,0" transform="translate(-306.358 -129.967)" fill="#ed1c24"/>
    <path id="Path_36" data-name="Path 36" d="M306.677,184.749H322a.869.869,0,1,0,0-1.737H306.677a.869.869,0,0,0,0,1.737Zm0,0" transform="translate(-270.353 -161.351)" fill="#ed1c24"/>
    <path id="Path_37" data-name="Path 37" d="M306.677,211.253H322a.869.869,0,1,0,0-1.737H306.677a.869.869,0,0,0,0,1.737Zm0,0" transform="translate(-270.353 -184.782)" fill="#ed1c24"/>
    <path id="Path_38" data-name="Path 38" d="M306.677,237.757H322a.869.869,0,1,0,0-1.737H306.677a.869.869,0,0,0,0,1.737Zm0,0" transform="translate(-270.353 -208.213)" fill="#ed1c24"/>
    <path id="Path_39" data-name="Path 39" d="M306.677,263.94h7.39a.869.869,0,0,0,0-1.738h-7.39a.869.869,0,0,0,0,1.738Zm0,0" transform="translate(-270.353 -231.36)" fill="#ed1c24"/>
    <path id="Path_40" data-name="Path 40" d="M44.389,9.1H40.6a14.877,14.877,0,0,0-7.518,2.03A15,15,0,0,0,18.756.5H14.972a14.973,14.973,0,0,0,0,29.946h2.592V33.79a1.131,1.131,0,0,0,1.941.792l5.141-5.25a1.3,1.3,0,0,1,.38-.27q.643-.3,1.254-.657A14.988,14.988,0,0,0,29.24,33.8a.869.869,0,1,0,1.319-1.131A13.254,13.254,0,0,1,27.8,27.387a15.16,15.16,0,0,0,3.048-3.1.869.869,0,0,0-1.4-1.026,13.4,13.4,0,0,1-5.149,4.229,3.026,3.026,0,0,0-.889.63l-4.1,4.19V30.28a1.573,1.573,0,0,0-1.571-1.571H14.972a13.236,13.236,0,0,1,0-26.471h3.784A13.251,13.251,0,0,1,31.992,15.473a13.1,13.1,0,0,1-.754,4.391.869.869,0,0,0,1.638.581,14.838,14.838,0,0,0,.853-4.972,15.014,15.014,0,0,0-.221-2.565,13.153,13.153,0,0,1,7.1-2.069h3.784a13.236,13.236,0,1,1,0,26.471H41.63a1.573,1.573,0,0,0-1.571,1.571v2.026l-4.1-4.19a3.02,3.02,0,0,0-.889-.63,13.33,13.33,0,0,1-1.664-.924.869.869,0,0,0-.95,1.455,14.979,14.979,0,0,0,1.883,1.045,1.308,1.308,0,0,1,.38.27l5.141,5.25a1.132,1.132,0,0,0,1.941-.792V39.048h2.591a14.973,14.973,0,0,0,0-29.946Zm0,0" transform="translate(0 0)" fill="#ed1c24"/>
    <path id="Path_41" data-name="Path 41" d="M131.126,172.027a1.335,1.335,0,0,0,0,2.669,1.335,1.335,0,0,0,0-2.669Zm0,0" transform="translate(-114.759 -151.64)" fill="#ed1c24"/>
    <path id="Path_42" data-name="Path 42" d="M118.826,90.906a4.437,4.437,0,0,0,1.941-3.172c0-1.629-1.473-2.86-3.692-2.86-2.34,0-3.415,1.387-3.415,2.322a.994.994,0,0,0,1.04.988c.936,0,.554-1.335,2.322-1.335.866,0,1.56.381,1.56,1.179,0,.936-.971,1.473-1.543,1.958a3.173,3.173,0,0,0-1.161,2.635c0,.9.243,1.161.953,1.161.849,0,1.023-.381,1.023-.711a2.177,2.177,0,0,1,.971-2.167Zm0,0" transform="translate(-100.483 -74.592)" fill="#ed1c24"/>
  </g>
</svg>
