<svg xmlns="http://www.w3.org/2000/svg" width="20.97" height="14.854" viewBox="0 0 20.97 14.854">
  <path id="youtbe" d="M20.506,5.622l.026.171a2.658,2.658,0,0,0-1.807-1.845l-.018,0C17.072,3.5,10.494,3.5,10.494,3.5s-6.562-.009-8.213.444A2.66,2.66,0,0,0,.46,5.775l0,.018A29.23,29.23,0,0,0,.483,16.232l-.027-.173A2.658,2.658,0,0,0,2.263,17.9l.018,0c1.633.445,8.213.445,8.213.445s6.561,0,8.213-.445a2.659,2.659,0,0,0,1.821-1.831l0-.018a27.318,27.318,0,0,0,.437-4.935c0-.064,0-.128,0-.193s0-.13,0-.2a28.184,28.184,0,0,0-.464-5.108ZM8.395,14.117V7.745l5.475,3.191Z" transform="translate(0 -3.5)" fill="rgba(255,255,255,0.8)"/>
</svg>
