<svg xmlns="http://www.w3.org/2000/svg" width="38.36" height="58" viewBox="0 0 38.36 58">
  <g id="avatar" transform="translate(-86.686 0)">
    <path id="Path_13" data-name="Path 13" d="M141.129,346.2a.851.851,0,0,0-1.353,1.033,12.236,12.236,0,0,1,2.526,7.485v8.265h-5.06v-6.633a.851.851,0,0,0-1.7,0v6.633H116.531v-6.633a.851.851,0,0,0-1.7,0v6.633h-5.06v-3.1a.851.851,0,0,0-1.7,0v3.954a.851.851,0,0,0,.851.851h34.236a.851.851,0,0,0,.851-.851v-9.116A13.926,13.926,0,0,0,141.129,346.2Z" transform="translate(-18.958 -306.682)" fill="#ed1c24"/>
    <path id="Path_14" data-name="Path 14" d="M91.879,21.754A4.421,4.421,0,0,0,95.993,27.8c.04,0,.079,0,.119,0a11.625,11.625,0,0,0,5.147,6.312A14.073,14.073,0,0,0,89.108,48.032V49.79a.851.851,0,1,0,1.7,0V48.032a12.365,12.365,0,0,1,11.816-12.338l1.584,4.078-1.787,9.793a.851.851,0,0,0,.232.752l3.816,3.855a.856.856,0,0,0,1.21,0l3.816-3.855a.851.851,0,0,0,.232-.752l-1.787-9.793,1.584-4.079a12.213,12.213,0,0,1,7.048,2.589.851.851,0,0,0,1.046-1.343,13.889,13.889,0,0,0-6.725-2.831,11.625,11.625,0,0,0,5.146-6.311c.04,0,.079,0,.119,0a4.421,4.421,0,0,0,4.115-6.044C124.222,14,123.71,8.4,120.749,5.117c-2.837-3.147-6.959-3.086-8.227-2.981C111.369,1.288,107.1-1.3,100.236.805a17.906,17.906,0,0,0-2.32.885.851.851,0,0,0,.72,1.542,16.185,16.185,0,0,1,2.1-.8,13.632,13.632,0,0,1,8.135-.2,8.572,8.572,0,0,1,2.835,1.425.851.851,0,0,0,.689.2c.043-.006,4.377-.613,7.09,2.4a9.278,9.278,0,0,1,2.122,5.2,25.926,25.926,0,0,1-.655,8.491,4.4,4.4,0,0,0-2.31-.968v-3a.851.851,0,0,0-.586-.809c-.04-.013-4.053-1.384-6.042-6.64a.851.851,0,0,0-1.476-.211c-4.129,5.481-14.166,6.616-14.266,6.627a.851.851,0,0,0-.761.846V18.98a4.4,4.4,0,0,0-2.295.956,24.589,24.589,0,0,1-.52-6.214.851.851,0,0,0-.847-.9A5.111,5.111,0,0,1,88.971,12a16.929,16.929,0,0,0,3.8-3.749,21.645,21.645,0,0,1,3.144-3.328A.851.851,0,0,0,94.845,3.6,23,23,0,0,0,91.453,7.18a12.9,12.9,0,0,1-4.293,3.9.857.857,0,0,0-.313,1.264,6.047,6.047,0,0,0,4.12,2.128,28.96,28.96,0,0,0,.913,7.282Zm17.826,13.928-1.225,3.155h-2.807l-1.225-3.155Zm-2.628,16.681-2.9-2.929,1.623-8.9h2.552l1.623,8.9Zm0-18.384a9.88,9.88,0,0,1-9.669-7.911,5.263,5.263,0,0,0,8.568-3.193h2.2a5.263,5.263,0,0,0,8.568,3.193A9.88,9.88,0,0,1,107.077,33.98ZM97.214,22.025a3.565,3.565,0,1,1,3.565,3.565A3.569,3.569,0,0,1,97.214,22.025Zm16.161,3.565a3.565,3.565,0,1,1,3.565-3.565,3.569,3.569,0,0,1-3.565,3.565Zm7.507-2.214a2.725,2.725,0,0,1-2.407,2.7,11.588,11.588,0,0,0,.167-1.962V20.7A2.725,2.725,0,0,1,120.882,23.377Zm-9.9-12.951a12.761,12.761,0,0,0,5.962,6.124v1.6a5.263,5.263,0,0,0-8.763,3.022h-2.2a5.263,5.263,0,0,0-8.763-3.022V16.539c2.369-.356,9.6-1.764,13.764-6.113ZM95.512,20.7v3.418a11.587,11.587,0,0,0,.167,1.962,2.721,2.721,0,0,1-.167-5.38Z" transform="translate(0 0)" fill="#ed1c24"/>
    <path id="Path_15" data-name="Path 15" d="M244.345,235.158a.851.851,0,0,0-1.111.463c0,.007-.33.718-1.557.718s-1.554-.711-1.557-.718a.851.851,0,0,0-1.574.648,3.652,3.652,0,0,0,6.263,0A.851.851,0,0,0,244.345,235.158Z" transform="translate(-134.599 -208.462)" fill="#ed1c24"/>
    <path id="Path_16" data-name="Path 16" d="M214.2,180.419a.851.851,0,0,0,.851-.851v-2.4a.851.851,0,0,0-1.7,0v2.4A.851.851,0,0,0,214.2,180.419Z" transform="translate(-112.312 -156.342)" fill="#ed1c24"/>
    <path id="Path_17" data-name="Path 17" d="M305.858,176.315a.851.851,0,0,0-.851.851v2.4a.851.851,0,0,0,1.7,0v-2.4A.851.851,0,0,0,305.858,176.315Z" transform="translate(-193.589 -156.342)" fill="#ed1c24"/>
  </g>
</svg>
