<svg xmlns="http://www.w3.org/2000/svg" width="49.784" height="49.78" viewBox="0 0 49.784 49.78">
  <g id="commerce-and-shopping" transform="translate(0 -0.023)">
    <g id="Group_56" data-name="Group 56" transform="translate(14.853 37.345)">
      <g id="Group_55" data-name="Group 55">
        <path id="Path_57" data-name="Path 57" d="M154.675,384.639a1.017,1.017,0,0,0-.055-.183.984.984,0,0,0-.089-.167.945.945,0,0,0-.268-.268.96.96,0,0,0-.168-.089.913.913,0,0,0-.182-.055.957.957,0,0,0-.379,0,.943.943,0,0,0-.183.055.987.987,0,0,0-.167.089.946.946,0,0,0-.268.268.921.921,0,0,0-.089.167.944.944,0,0,0-.055.183.934.934,0,0,0,0,.379.913.913,0,0,0,.055.182.9.9,0,0,0,.089.168.946.946,0,0,0,.268.268.983.983,0,0,0,.167.09.945.945,0,0,0,.183.055.933.933,0,0,0,.379,0,.915.915,0,0,0,.182-.055.96.96,0,0,0,.168-.09.945.945,0,0,0,.268-.268.958.958,0,0,0,.089-.168.983.983,0,0,0,.055-.182.934.934,0,0,0,0-.379Z" transform="translate(-152.75 -383.857)" fill="#e71d36"/>
      </g>
    </g>
    <g id="Group_58" data-name="Group 58" transform="translate(0 30.156)">
      <g id="Group_57" data-name="Group 57">
        <path id="Path_58" data-name="Path 58" d="M44.727,318.193l-.012-.029c-.895-2.094-2.994-2.868-5.478-2.02l-6.774,1.873a4.441,4.441,0,0,0-2.75-2.708l-.026-.009-7.446-2.527a7.68,7.68,0,0,0-6.2-2.851,7.776,7.776,0,0,0-6.073,3.642h-9a.972.972,0,0,0-.972.972V326.8a.972.972,0,0,0,.972.972H6.754a.972.972,0,0,0,.972-.972v-.84h2.711a.972.972,0,0,0,.972-.972v-.28a6.893,6.893,0,0,1,3.552,1.275,58.856,58.856,0,0,0,5.842,2.983l.043.018a8.728,8.728,0,0,0,3.128.59,7.75,7.75,0,0,0,3.221-.69l14.973-5.361c.027-.01.053-.02.079-.032C43.678,322.827,45.811,320.972,44.727,318.193Zm-38.946,7.63H1.945V315.509H5.781Zm3.684-1.812H7.726v-8.5H9.465ZM41.47,321.7,26.5,327.061l-.044.017-.039.017a6.3,6.3,0,0,1-4.842.083,56.319,56.319,0,0,1-5.646-2.884,8.752,8.752,0,0,0-4.523-1.539v-7.832c.922-1.511,2.709-3.057,4.636-3.057a5.611,5.611,0,0,1,4.76,2.236.973.973,0,0,0,.516.412l7.728,2.623a2.182,2.182,0,0,1,1.587,2.574,1.894,1.894,0,0,1-2.328,1.308L19.6,318.258a.972.972,0,0,0-.587,1.854l8.727,2.765.028.008a3.817,3.817,0,0,0,2.919-.339,3.814,3.814,0,0,0,1.824-2.3q.034-.118.059-.236l7.3-2.022c1.054-.36,2.439-.49,3.055.929C43.559,320.58,41.9,321.5,41.47,321.7Z" transform="translate(0 -309.922)" fill="#e71d36"/>
      </g>
    </g>
    <g id="Group_60" data-name="Group 60" transform="translate(32.987 12.029)">
      <g id="Group_59" data-name="Group 59">
        <path id="Path_59" data-name="Path 59" d="M341.176,124.28a.948.948,0,0,0-.056-.183.959.959,0,0,0-.358-.436.988.988,0,0,0-.167-.089.968.968,0,0,0-.562-.055.914.914,0,0,0-.182.055.962.962,0,0,0-.168.089.944.944,0,0,0-.268.268.988.988,0,0,0-.089.167.943.943,0,0,0-.055.183.934.934,0,0,0,0,.379.914.914,0,0,0,.055.182.961.961,0,0,0,.089.168.944.944,0,0,0,.268.268.961.961,0,0,0,.168.089.981.981,0,0,0,.182.055.958.958,0,0,0,.19.019.976.976,0,0,0,.191-.019,1.03,1.03,0,0,0,.182-.055.987.987,0,0,0,.167-.089.945.945,0,0,0,.268-.268.9.9,0,0,0,.089-.168.918.918,0,0,0,.056-.182.983.983,0,0,0,0-.379Z" transform="translate(-339.25 -123.498)" fill="#e71d36"/>
      </g>
    </g>
    <g id="Group_62" data-name="Group 62" transform="translate(2.887 0.023)">
      <g id="Group_61" data-name="Group 61">
        <path id="Path_60" data-name="Path 60" d="M75.616,3.316H69.834a.972.972,0,0,0-.972.972v.84H66.151a.972.972,0,0,0-.972.972v.28a6.894,6.894,0,0,1-3.552-1.275,58.838,58.838,0,0,0-5.842-2.983l-.043-.018a8.272,8.272,0,0,0-6.349.1l-3.913,1.4-3.3-3.3a.972.972,0,0,0-1.375,0L29.979,11.136a.964.964,0,0,0,0,1.375l18.5,18.5a1.051,1.051,0,0,0,1.375,0l9.885-9.885c.257.022.524.034.8.034a7.775,7.775,0,0,0,6.073-3.642h9a.972.972,0,0,0,.972-.972V4.289A.972.972,0,0,0,75.616,3.316ZM41.494,2.371l2.216,2.216a4.239,4.239,0,0,1-4.432,0ZM34.258,14.04l-2.216-2.216,2.216-2.216a4.239,4.239,0,0,1,0,4.432ZM49.169,28.951l-2.216-2.216a4.233,4.233,0,0,1,4.431,0Zm3.617-3.617a6.179,6.179,0,0,0-7.233,0L35.659,15.44a6.179,6.179,0,0,0,0-7.234l2.219-2.219a6.179,6.179,0,0,0,7.234,0l2.1,2.1a3.854,3.854,0,0,0-2.893,2.12,5.542,5.542,0,1,0,6.372,6.86l3.283,1.114a6.208,6.208,0,0,0,1.03,4.928Zm-5.912-9.559.026.009,1.944.66a3.6,3.6,0,1,1-4.884-4.11A4.3,4.3,0,0,0,46.874,15.775Zm9.533,5.938a4.253,4.253,0,0,1-.621-2.022,7.561,7.561,0,0,0,1.715.928Zm8.771-5.552c-.922,1.511-2.709,3.057-4.636,3.057a7.077,7.077,0,0,1-1.014-.071h0a5.569,5.569,0,0,1-3.6-1.971c-.02-.029-.1-.14-.117-.158a.969.969,0,0,0-.536-.446l-7.731-2.624a2.182,2.182,0,0,1-1.587-2.573v0a1.894,1.894,0,0,1,2.327-1.3l8.712,2.761a.972.972,0,0,0,.587-1.854l-6.928-2.2-.06-.06,0,0L47,5.127l3.083-1.1.034-.013.01,0,.039-.017a6.3,6.3,0,0,1,4.842-.083A56.325,56.325,0,0,1,60.655,6.79a8.751,8.751,0,0,0,4.523,1.539Zm3.684-.585H67.123v-8.5h1.739Zm5.781,0H70.807V5.261h3.837Z" transform="translate(-29.691 -0.023)" fill="#e71d36"/>
      </g>
    </g>
  </g>
</svg>
