<svg id="facebook" xmlns="http://www.w3.org/2000/svg" width="16.078" height="16.078" viewBox="0 0 16.078 16.078">
  <path id="Path_93" data-name="Path 93" d="M291.057,508.668l-.2.03Zm0,0" transform="translate(-281.722 -492.695)" fill="rgba(255,255,255,0.8)"/>
  <path id="Path_94" data-name="Path 94" d="M299.435,507.793l-.1.017Zm0,0" transform="translate(-289.94 -491.847)" fill="rgba(255,255,255,0.8)"/>
  <path id="Path_95" data-name="Path 95" d="M277.846,510.34q-.118.013-.236.023Q277.728,510.353,277.846,510.34Zm0,0" transform="translate(-268.892 -494.314)" fill="rgba(255,255,255,0.8)"/>
  <path id="Path_96" data-name="Path 96" d="M286.559,509.738l-.113.014Zm0,0" transform="translate(-277.451 -493.731)" fill="rgba(255,255,255,0.8)"/>
  <path id="Path_97" data-name="Path 97" d="M306.749,506.41l-.085.018Zm0,0" transform="translate(-297.034 -490.508)" fill="rgba(255,255,255,0.8)"/>
  <path id="Path_98" data-name="Path 98" d="M324.553,502.113l-.068.019Zm0,0" transform="translate(-314.295 -486.346)" fill="rgba(255,255,255,0.8)"/>
  <path id="Path_99" data-name="Path 99" d="M319.134,503.543l-.075.019Zm0,0" transform="translate(-309.04 -487.731)" fill="rgba(255,255,255,0.8)"/>
  <path id="Path_100" data-name="Path 100" d="M312.146,505.254l-.079.018Zm0,0" transform="translate(-302.267 -489.388)" fill="rgba(255,255,255,0.8)"/>
  <path id="Path_101" data-name="Path 101" d="M273.607,511.09l-.127.01Zm0,0" transform="translate(-264.892 -495.041)" fill="rgba(255,255,255,0.8)"/>
  <path id="Path_102" data-name="Path 102" d="M16.078,8.039a8.039,8.039,0,1,0-8.039,8.039l.141,0V9.818H6.453V7.805H8.18V6.324a2.418,2.418,0,0,1,2.581-2.653,14.217,14.217,0,0,1,1.548.079v1.8H11.253c-.834,0-1,.4-1,.978V7.805h1.993l-.26,2.013H10.258v5.949a8.043,8.043,0,0,0,5.82-7.728Zm0,0" fill="rgba(255,255,255,0.8)"/>
  <path id="Path_103" data-name="Path 103" d="M265.143,511.43q-.126.008-.252.012Q265.017,511.438,265.143,511.43Zm0,0" transform="translate(-256.573 -495.37)" fill="rgba(255,255,255,0.8)"/>
  <path id="Path_104" data-name="Path 104" d="M260.637,511.836l-.133,0Zm0,0" transform="translate(-252.324 -495.763)" fill="rgba(255,255,255,0.8)"/>
</svg>
