<svg xmlns="http://www.w3.org/2000/svg" width="53.139" height="53.139" viewBox="0 0 53.139 53.139">
  <g id="outline" transform="translate(-16 -16)">
    <path id="Path_61" data-name="Path 61" d="M66.482,16H20.428a2.66,2.66,0,0,0-2.657,2.657V42.722A2.661,2.661,0,0,0,16,45.226V66.482a2.66,2.66,0,0,0,2.657,2.657h14.17a2.66,2.66,0,0,0,2.657-2.657V51.426h2.641a9.626,9.626,0,0,1-1.606,4.823.886.886,0,0,0,.737,1.377h12.4a.886.886,0,0,0,.737-1.377,9.626,9.626,0,0,1-1.606-4.823h17.7a2.66,2.66,0,0,0,2.657-2.657V18.657A2.66,2.66,0,0,0,66.482,16ZM20.428,17.771H66.482a.887.887,0,0,1,.886.886V44.341H65.6V39.912a.886.886,0,0,0-.886-.886H53.2a.886.886,0,0,0-.886.886v4.428H50.54V39.912a.886.886,0,0,0-.886-.886h-12.4a.886.886,0,0,0-.886.886v4.428H35.332a2.665,2.665,0,0,0-.733-1.093V39.912a.886.886,0,0,0-.886-.886H22.2a.886.886,0,0,0-.886.886v2.657H19.543V18.657a.887.887,0,0,1,.886-.886Zm43.4,26.569H54.083V40.8h9.742Zm-15.056,0H38.141V40.8H48.769ZM32.827,42.569H23.085V40.8h9.742Zm-14.17,1.771h14.17a.887.887,0,0,1,.886.886v.886H17.771v-.886a.887.887,0,0,1,.886-.886Zm15.056,3.543V63.825H17.771V47.883Zm-.886,19.484H18.657a.887.887,0,0,1-.886-.886V65.6H33.713v.886A.887.887,0,0,1,32.827,67.367Zm15.3-11.513H38.779A11.385,11.385,0,0,0,39.9,51.426h7.11A11.384,11.384,0,0,0,48.131,55.854Zm18.351-6.2h-31V46.112H67.367v2.657A.887.887,0,0,1,66.482,49.654Z" fill="#e71d36"/>
    <circle id="Ellipse_17" data-name="Ellipse 17" cx="0.882" cy="0.882" r="0.882" transform="translate(42.69 47.15)" fill="#e71d36"/>
    <path id="Path_62" data-name="Path 62" d="M64.886,55.085H107.4a.886.886,0,0,0,.886-.886V48.886A.886.886,0,0,0,107.4,48H64.886a.886.886,0,0,0-.886.886V54.2A.886.886,0,0,0,64.886,55.085Zm.886-5.314h40.74v3.543H65.771Z" transform="translate(-42.686 -28.457)" fill="#e71d36"/>
    <path id="Path_63" data-name="Path 63" d="M64.886,136.856H76.4a.886.886,0,0,0,.886-.886v-7.085A.886.886,0,0,0,76.4,128H64.886a.886.886,0,0,0-.886.886v7.085A.886.886,0,0,0,64.886,136.856Zm.886-7.085h9.742v5.314H65.771Z" transform="translate(-42.686 -99.601)" fill="#e71d36"/>
    <path id="Path_64" data-name="Path 64" d="M356.4,128H344.886a.886.886,0,0,0-.886.886v7.085a.886.886,0,0,0,.886.886H356.4a.886.886,0,0,0,.886-.886v-7.085A.886.886,0,0,0,356.4,128Zm-.886,7.085h-9.742v-5.314h9.742Z" transform="translate(-291.689 -99.601)" fill="#e71d36"/>
    <path id="Path_65" data-name="Path 65" d="M213.285,128h-12.4a.886.886,0,0,0-.886.886v7.085a.886.886,0,0,0,.886.886h12.4a.886.886,0,0,0,.886-.886v-7.085A.886.886,0,0,0,213.285,128Zm-.886,7.085H201.771v-5.314H212.4Z" transform="translate(-163.63 -99.601)" fill="#e71d36"/>
    <path id="Path_66" data-name="Path 66" d="M369.742,367.942a.886.886,0,0,0,.886-.886v-14.17a.886.886,0,0,0-.886-.886h-8.856a.886.886,0,0,0-.886.886v14.17a.886.886,0,0,0,.886.886Zm-4.428-1.771h-3.543V364.4h7.085v1.771Zm3.543-12.4v8.856h-7.085v-8.856Z" transform="translate(-305.917 -298.803)" fill="#e71d36"/>
    <circle id="Ellipse_18" data-name="Ellipse 18" cx="0.882" cy="0.882" r="0.882" transform="translate(58.559 65.37)" fill="#e71d36"/>
    <path id="Path_67" data-name="Path 67" d="M384,384h5.314v1.771H384Z" transform="translate(-327.26 -327.26)" fill="#e71d36"/>
    <path id="Path_68" data-name="Path 68" d="M384,416h5.314v1.771H384Z" transform="translate(-327.26 -355.718)" fill="#e71d36"/>
    <circle id="Ellipse_19" data-name="Ellipse 19" cx="0.882" cy="0.882" r="0.882" transform="translate(25.058 65.37)" fill="#e71d36"/>
    <path id="Path_69" data-name="Path 69" d="M48.886,325.314H59.513a.886.886,0,0,0,.886-.886v-3.543a.886.886,0,0,0-.886-.886H48.886a.886.886,0,0,0-.886.886v3.543A.886.886,0,0,0,48.886,325.314Zm.886-3.543h8.856v1.771H49.771Z" transform="translate(-28.457 -270.346)" fill="#e71d36"/>
    <path id="Path_70" data-name="Path 70" d="M128,384h3.543v1.771H128Z" transform="translate(-99.601 -327.26)" fill="#e71d36"/>
    <path id="Path_71" data-name="Path 71" d="M128,416h3.543v1.771H128Z" transform="translate(-99.601 -355.718)" fill="#e71d36"/>
    <path id="Path_72" data-name="Path 72" d="M88,384h3.543v1.771H88Z" transform="translate(-64.029 -327.26)" fill="#e71d36"/>
    <path id="Path_73" data-name="Path 73" d="M88,416h3.543v1.771H88Z" transform="translate(-64.029 -355.718)" fill="#e71d36"/>
    <path id="Path_74" data-name="Path 74" d="M48,384h3.543v1.771H48Z" transform="translate(-28.457 -327.26)" fill="#e71d36"/>
    <path id="Path_75" data-name="Path 75" d="M48,416h3.543v1.771H48Z" transform="translate(-28.457 -355.718)" fill="#e71d36"/>
  </g>
</svg>
