<svg id="geography" xmlns="http://www.w3.org/2000/svg" width="65.88" height="65.88" viewBox="0 0 65.88 65.88">
  <g id="Group_5" data-name="Group 5" transform="translate(0.003 0.003)">
    <ellipse id="Ellipse_4" data-name="Ellipse 4" cx="32.939" cy="32.939" rx="32.939" ry="32.939" fill="#fff"/>
    <ellipse id="Ellipse_5" data-name="Ellipse 5" cx="32.939" cy="32.939" rx="32.939" ry="32.939" fill="#fff"/>
  </g>
  <path id="Path_11" data-name="Path 11" d="M286.208,22.794l-.01-.029A32.961,32.961,0,0,0,258.109.972c5.041,2.764,6.514,11.52,7.8,21.822a91.082,91.082,0,0,1,.017,21.835c-1.279,10.357-2.758,19.176-7.82,21.951A32.961,32.961,0,0,0,286.22,44.723c.011-.032.02-.063.032-.094a32.965,32.965,0,0,0-.044-21.835Z" transform="translate(-222.211 -0.837)" fill="#efecec"/>
  <path id="Path_12" data-name="Path 12" d="M45.4,21.957C44.109,11.656,40.94,2.9,35.9.135,34.923.049,33.937,0,32.939,0A32.946,32.946,0,0,0,1.893,21.929l-.01.029a32.966,32.966,0,0,0-.044,21.835c.011.031.021.062.032.094A32.948,32.948,0,0,0,32.939,65.88c1,0,1.984-.049,2.959-.136,5.063-2.775,8.237-11.594,9.516-21.951A91.071,91.071,0,0,0,45.4,21.957Z" fill="#f3f2f2"/>
  <ellipse id="Ellipse_6" data-name="Ellipse 6" cx="12.135" cy="12.135" rx="12.135" ry="12.135" transform="translate(20.807 20.807)" fill="#ec1c24"/>
</svg>
