<svg id="interface_1_" data-name="interface (1)" xmlns="http://www.w3.org/2000/svg" width="79" height="55.084" viewBox="0 0 79 55.084">
  <g id="Group_32" data-name="Group 32">
    <g id="Group_31" data-name="Group 31">
      <path id="Path_53" data-name="Path 53" d="M18.889,95.161l-.141,0a3.077,3.077,0,1,0-.155,6.153l.168,0A12.309,12.309,0,1,1,6.172,113.62a46.093,46.093,0,0,1,6.01-23.252,34.838,34.838,0,0,1,6.068-7.99,3.081,3.081,0,0,0-4.091-4.609,39.834,39.834,0,0,0-7.185,9.284A52.669,52.669,0,0,0,0,113.62a18.516,18.516,0,0,0,37.031,0A18.488,18.488,0,0,0,18.889,95.161Z" transform="translate(0 -77)" fill="#ed1c24"/>
      <path id="Path_54" data-name="Path 54" d="M303.727,100.685a18.432,18.432,0,0,0-12.839-5.524l-.141,0a3.077,3.077,0,1,0-.155,6.153l.168,0a12.309,12.309,0,1,1-12.589,12.306,46.093,46.093,0,0,1,6.01-23.251,34.842,34.842,0,0,1,6.068-7.99,3.081,3.081,0,0,0-4.091-4.609,39.845,39.845,0,0,0-7.185,9.284A52.669,52.669,0,0,0,272,113.62a18.516,18.516,0,1,0,31.727-12.935Z" transform="translate(-230.031 -77)" fill="#ed1c24"/>
    </g>
  </g>
</svg>
