<svg xmlns="http://www.w3.org/2000/svg" width="52.131" height="52.131" viewBox="0 0 52.131 52.131">
  <g id="Group_89" data-name="Group 89" transform="translate(-972 -1898)">
    <g id="commerce-and-shopping" transform="translate(971.999 1898)">
      <path id="XMLID_1468_" d="M51.147,7.923l.686-.686a1.018,1.018,0,0,0-1.44-1.44l-.686.686L49.021,5.8a1.018,1.018,0,0,0-.72-.3h-1.12L41.981.3a1.018,1.018,0,0,0-.72-.3H3.668A3.671,3.671,0,0,0,0,3.667V22.747a3.671,3.671,0,0,0,3.667,3.667h8.87L6.573,32.379a3.667,3.667,0,0,0,0,5.186L20.065,51.057a3.667,3.667,0,0,0,5.186,0l10.105-10.1a1.018,1.018,0,1,0-1.44-1.44l-10.105,10.1a1.63,1.63,0,0,1-2.306,0L8.013,36.125a1.63,1.63,0,0,1,0-2.306L34.3,7.535H47.88l.388.388-2.354,2.354a3.056,3.056,0,1,0,1.44,1.44l2.354-2.354.388.388V23.333l-9.7,9.7a1.018,1.018,0,0,0,1.44,1.44l10-10a1.018,1.018,0,0,0,.3-.72V9.329a1.018,1.018,0,0,0-.3-.72ZM18.285,18.27A1.019,1.019,0,1,1,19.3,17.251,1.02,1.02,0,0,1,18.285,18.27ZM33.875,5.5a1.018,1.018,0,0,0-.72.3L21.315,17.638a3.061,3.061,0,1,0-2.643,2.643l-4.1,4.1H3.668a1.632,1.632,0,0,1-1.63-1.631V3.667a1.632,1.632,0,0,1,1.63-1.631H40.839L44.3,5.5ZM44.6,14.051a1.018,1.018,0,1,1,.618-1.826.917.917,0,0,0,.19.19,1.016,1.016,0,0,1-.807,1.636Z" fill="#e71d36"/>
      <path id="XMLID_1527_" d="M272.808,227.063a1.018,1.018,0,0,0,.72-.3l2.3-2.3a1.018,1.018,0,0,0-1.44-1.44l-1.584,1.584-5.04-5.04a1.018,1.018,0,1,0-1.44,1.44l5.76,5.76A1.019,1.019,0,0,0,272.808,227.063Z" transform="translate(-238.943 -196.942)" fill="#e71d36"/>
      <path id="XMLID_1528_" d="M326.455,154.614a1.018,1.018,0,0,0-1.44,0l-1.3,1.3-1.44-1.44,1.3-1.3a1.018,1.018,0,1,0-1.44-1.44l-1.3,1.3-1.44-1.44,1.3-1.3a1.018,1.018,0,0,0-1.44-1.44l-2.016,2.016a1.018,1.018,0,0,0,0,1.44l5.76,5.76a1.018,1.018,0,0,0,1.44,0l2.016-2.016a1.018,1.018,0,0,0,0-1.44Z" transform="translate(-284.67 -133.431)" fill="#e71d36"/>
      <path id="XMLID_1531_" d="M227.549,271.748a1.018,1.018,0,1,0,.924-1.814l-7.632-3.888a1.018,1.018,0,0,0-1.369,1.369l3.888,7.632a1.018,1.018,0,0,0,1.814-.924l-.312-.613,2.074-2.074Zm-3.658-.146-1.182-2.319,2.319,1.182Z" transform="translate(-197.026 -238.858)" fill="#e71d36"/>
      <path id="XMLID_1532_" d="M157.919,321.542a1.018,1.018,0,1,0,1.44,1.44l1.44-1.44a3.054,3.054,0,0,0-4.137-4.487,1.017,1.017,0,0,0-.107.092l-.075.075a1.018,1.018,0,0,1-1.44-1.44l1.44-1.44a1.018,1.018,0,1,0-1.44-1.44l-1.44,1.44a3.055,3.055,0,0,0,4.318,4.322l0,0a1.018,1.018,0,1,1,1.44,1.44Z" transform="translate(-137.157 -280.776)" fill="#e71d36"/>
      <path id="XMLID_1533_" d="M100.007,63.4a1.018,1.018,0,0,0-1.387.386L92.053,75.415a1.018,1.018,0,1,0,1.773,1l6.567-11.633A1.018,1.018,0,0,0,100.007,63.4Z" transform="translate(-82.561 -56.822)" fill="#e71d36"/>
      <path id="XMLID_1536_" d="M71.279,63.049A3.055,3.055,0,1,0,68.224,66.1,3.058,3.058,0,0,0,71.279,63.049Zm-4.073,0a1.018,1.018,0,1,1,1.018,1.019A1.02,1.02,0,0,1,67.205,63.049Z" transform="translate(-58.533 -53.886)" fill="#e71d36"/>
      <path id="XMLID_1537_" d="M363.009,353.319a1.019,1.019,0,1,0,.72.3A1.024,1.024,0,0,0,363.009,353.319Z" transform="translate(-325.133 -317.345)" fill="#e71d36"/>
    </g>
  </g>
</svg>
