<svg xmlns="http://www.w3.org/2000/svg" width="41.853" height="49.197" viewBox="0 0 41.853 49.197">
  <g id="document" transform="translate(-13.6 -4.75)">
    <path id="Path_18" data-name="Path 18" d="M29.577,51.924H33.8a.727.727,0,0,0,.727-.727V46.977a.727.727,0,0,0-.727-.727H29.577a.727.727,0,0,0-.726.727V51.2a.727.727,0,0,0,.726.727ZM30.3,47.7h2.769v2.767H30.3Z" transform="translate(-8.919 -24.271)" fill="#ed1c24"/>
    <path id="Path_19" data-name="Path 19" d="M29.577,73.757H33.8a.727.727,0,0,0,.727-.726V68.811a.727.727,0,0,0-.727-.727H29.577a.727.727,0,0,0-.727.727v4.221A.727.727,0,0,0,29.577,73.757Zm.727-4.22h2.769V72.3H30.3Z" transform="translate(-8.919 -37.04)" fill="#ed1c24"/>
    <path id="Path_20" data-name="Path 20" d="M29.577,95.591H33.8a.727.727,0,0,0,.727-.727v-4.22a.727.727,0,0,0-.727-.727H29.577a.727.727,0,0,0-.727.727v4.22A.727.727,0,0,0,29.577,95.591Zm.727-4.22h2.769v2.767H30.3Z" transform="translate(-8.919 -49.809)" fill="#ed1c24"/>
    <path id="Path_21" data-name="Path 21" d="M29.577,30.091H33.8a.727.727,0,0,0,.727-.727v-4.22a.727.727,0,0,0-.727-.727H29.577a.727.727,0,0,0-.727.727v4.22a.727.727,0,0,0,.727.727Zm.727-4.22h2.769v2.767H30.3Z" transform="translate(-8.919 -11.503)" fill="#ed1c24"/>
    <path id="Path_22" data-name="Path 22" d="M49.917,29.7H69.205a.727.727,0,1,0,0-1.453H49.917a.727.727,0,0,0,0,1.453Z" transform="translate(-20.814 -13.744)" fill="#ed1c24"/>
    <path id="Path_23" data-name="Path 23" d="M49.917,52.786H69.205a.727.727,0,1,0,0-1.453H49.917a.727.727,0,0,0,0,1.453Z" transform="translate(-20.814 -27.243)" fill="#ed1c24"/>
    <path id="Path_24" data-name="Path 24" d="M49.917,75.869H69.205a.727.727,0,1,0,0-1.453H49.917a.727.727,0,0,0,0,1.453Z" transform="translate(-20.814 -40.743)" fill="#ed1c24"/>
    <path id="Path_25" data-name="Path 25" d="M49.917,98.953H69.205a.727.727,0,1,0,0-1.453H49.917a.727.727,0,1,0,0,1.453Z" transform="translate(-20.814 -54.244)" fill="#ed1c24"/>
    <path id="Path_26" data-name="Path 26" d="M54.724,4.75h-40.4a.727.727,0,0,0-.724.727V53.22a.727.727,0,0,0,.727.727h40.4a.727.727,0,0,0,.727-.727V5.477a.727.727,0,0,0-.729-.727ZM54,52.494H15.053V6.2H54Z" transform="translate(0 0)" fill="#ed1c24"/>
  </g>
</svg>
