<svg id="Group_87" data-name="Group 87" xmlns="http://www.w3.org/2000/svg" width="50" height="50" viewBox="0 0 50 50">
  <path id="Path_109" data-name="Path 109" d="M335.836,288.672h-2.5V272.839a.833.833,0,0,0-1.516-.477l-11.667,16.667a.833.833,0,0,0,.682,1.311H331.67v2.5a.833.833,0,1,0,1.667,0v-2.5h2.5a.833.833,0,1,0,0-1.667Zm-4.167,0h-9.233l9.233-13.19Z" transform="translate(-286.67 -243.672)" fill="#e71d36"/>
  <path id="Path_110" data-name="Path 110" d="M220.5,291.988h-9.866l9.173-10.8a.894.894,0,0,0,.058-.077,5.8,5.8,0,0,0-1.308-7.87A6.667,6.667,0,0,0,208,278.654a.833.833,0,1,0,1.667,0,5,5,0,0,1,7.917-4.062,4.114,4.114,0,0,1,.917,5.554l-10.3,12.135a.833.833,0,0,0,.635,1.372H220.5a.833.833,0,1,0,0-1.667Z" transform="translate(-186.333 -243.654)" fill="#e71d36"/>
  <path id="Path_111" data-name="Path 111" d="M22.518,44.182a.833.833,0,0,0-.8-.864h0A20.808,20.808,0,0,1,1.7,23.333H5a.833.833,0,0,0,0-1.667H1.7A20.783,20.783,0,0,1,21.667,1.7v2.47a.833.833,0,0,0,1.667,0V1.7A20.8,20.8,0,0,1,43.293,21.28l-3.25-3.25a.833.833,0,0,0-1.178,1.178l4.652,4.652a.819.819,0,0,0,.328.239.956.956,0,0,0,.1.024.824.824,0,0,0,.177.042h.047a.8.8,0,0,0,.187-.037.784.784,0,0,0,.1-.019.821.821,0,0,0,.3-.188l4.715-4.713a.833.833,0,0,0-1.178-1.178l-3.331,3.328A22.465,22.465,0,0,0,22.559.012C22.538.011,22.521,0,22.5,0s-.038.011-.059.012A22.46,22.46,0,0,0,.012,22.441c0,.021-.012.038-.012.059s.011.038.012.059A22.479,22.479,0,0,0,21.655,44.984h.031A.833.833,0,0,0,22.518,44.182Z" fill="#e71d36"/>
  <path id="Path_112" data-name="Path 112" d="M169.442,106.422a.833.833,0,0,0-1.178,0l-8.955,8.954a2.61,2.61,0,0,0-2.126,0l-4.24-4.24a.833.833,0,0,0-1.178,1.178L156,116.546a2.5,2.5,0,1,0,4.5,0l8.947-8.947A.833.833,0,0,0,169.442,106.422Zm-10.606,11.785h0a.853.853,0,0,1-1.178,0,.833.833,0,1,1,1.179,0Z" transform="translate(-135.746 -95.118)" fill="#e71d36"/>
</svg>
